
<svg width="1212" height="50" viewBox="0 0 1212 50" fill="none" xmlns="http://www.w3.org/2000/svg">
<g filter="url(#filter0_d_8_5201)">
<g filter="url(#filter1_f_8_5201)">
<path d="M8 25H380" stroke="url(#paint0_linear_8_5201)" stroke-width="2"/>
<path d="M7.4605 21.2235C7.75846 20.9255 8.24154 20.9255 8.5395 21.2235L11.7765 24.4605C12.0745 24.7585 12.0745 25.2415 11.7765 25.5395L8.5395 28.7765C8.24154 29.0745 7.75846 29.0745 7.4605 28.7765L4.22347 25.5395C3.92551 25.2415 3.92551 24.7585 4.22347 24.4605L7.4605 21.2235Z" fill="#9FABCC"/>
</g>
<path d="M8 25H380" stroke="url(#paint1_linear_8_5201)" stroke-width="2"/>
<path d="M7.4605 21.2235C7.75846 20.9255 8.24154 20.9255 8.5395 21.2235L11.7765 24.4605C12.0745 24.7585 12.0745 25.2415 11.7765 25.5395L8.5395 28.7765C8.24154 29.0745 7.75846 29.0745 7.4605 28.7765L4.22347 25.5395C3.92551 25.2415 3.92551 24.7585 4.22347 24.4605L7.4605 21.2235Z" fill="#BDC8E8"/>
</g>
<path opacity="0.5" d="M392.076 9.39996C392.265 9.14818 392.562 9 392.876 9H402.258C403.082 9 403.552 9.94081 403.057 10.6L392.331 24.9C392.065 25.2555 392.065 25.7445 392.331 26.1L403.057 40.4C403.552 41.0592 403.082 42 402.258 42H392.876C392.562 42 392.265 41.8518 392.076 41.6L380.45 26.1C380.183 25.7445 380.183 25.2555 380.45 24.9L392.076 9.39996Z" fill="#186FBB"/>
<path d="M411.878 9.39996C412.067 9.14818 412.364 9 412.678 9H422.06C422.884 9 423.354 9.94081 422.86 10.6L412.133 24.9C411.867 25.2555 411.867 25.7445 412.133 26.1L422.86 40.4C423.354 41.0592 422.884 42 422.06 42H412.678C412.364 42 412.067 41.8518 411.878 41.6L400.252 26.1C399.985 25.7445 399.985 25.2555 400.252 24.9L411.878 9.39996Z" fill="#186FBB"/>
<path fill-rule="evenodd" clip-rule="evenodd" d="M452 1C452 0.447715 451.552 0 451 0H446.059H440.602C440.297 0 440.008 0.139631 439.818 0.379094L420.808 24.3791C420.52 24.7429 420.52 25.2571 420.808 25.6209L439.818 49.6209C440.008 49.8604 440.297 50 440.602 50H446.059H451C451.552 50 452 49.5523 452 49V46.5C452 45.9477 451.552 45.5 451 45.5H442.979C442.673 45.5 442.384 45.3604 442.195 45.1209L426.749 25.6209C426.461 25.2571 426.461 24.7429 426.749 24.3791L442.195 4.8791C442.384 4.63963 442.673 4.5 442.979 4.5H451C451.552 4.5 452 4.05228 452 3.5V1Z" fill="url(#paint2_linear_8_5201)"/>
<mask id="mask0_8_5201" style="mask-type:alpha" maskUnits="userSpaceOnUse" x="476" y="2" width="260" height="46">
<path d="M496 2H716L736 25L716 48H496L476 25L496 2Z" fill="#D9D9D9"/>
</mask>
<g mask="url(#mask0_8_5201)">
<rect opacity="0.3" x="488.473" y="-7" width="4.1" height="68" transform="rotate(22 488.473 -7)" fill="#186FBB"/>
<rect opacity="0.3" x="496.748" y="-7" width="4.1" height="68" transform="rotate(22 496.748 -7)" fill="#186FBB"/>
<rect opacity="0.3" x="505.023" y="-7" width="4.1" height="68" transform="rotate(22 505.023 -7)" fill="#186FBB"/>
<rect opacity="0.3" x="513.297" y="-7" width="4.1" height="68" transform="rotate(22 513.297 -7)" fill="#186FBB"/>
<rect opacity="0.3" x="521.572" y="-7" width="4.1" height="68" transform="rotate(22 521.572 -7)" fill="#186FBB"/>
<rect opacity="0.3" x="529.847" y="-7" width="4.1" height="68" transform="rotate(22 529.847 -7)" fill="#186FBB"/>
<rect opacity="0.3" x="538.121" y="-7" width="4.1" height="68" transform="rotate(22 538.121 -7)" fill="#186FBB"/>
<rect opacity="0.3" x="546.396" y="-7" width="4.1" height="68" transform="rotate(22 546.396 -7)" fill="#186FBB"/>
<rect opacity="0.3" x="554.671" y="-7" width="4.1" height="68" transform="rotate(22 554.671 -7)" fill="#186FBB"/>
<rect opacity="0.3" x="562.946" y="-7" width="4.1" height="68" transform="rotate(22 562.946 -7)" fill="#186FBB"/>
<rect opacity="0.3" x="571.22" y="-7" width="4.1" height="68" transform="rotate(22 571.22 -7)" fill="#186FBB"/>
<rect opacity="0.3" x="579.495" y="-7" width="4.1" height="68" transform="rotate(22 579.495 -7)" fill="#186FBB"/>
<rect opacity="0.3" x="587.77" y="-7" width="4.1" height="68" transform="rotate(22 587.77 -7)" fill="#186FBB"/>
<rect opacity="0.3" x="596.044" y="-7" width="4.1" height="68" transform="rotate(22 596.044 -7)" fill="#186FBB"/>
<rect opacity="0.3" x="604.319" y="-7" width="4.1" height="68" transform="rotate(22 604.319 -7)" fill="#186FBB"/>
<rect opacity="0.3" x="612.594" y="-7" width="4.1" height="68" transform="rotate(22 612.594 -7)" fill="#186FBB"/>
<rect opacity="0.3" x="620.869" y="-7" width="4.1" height="68" transform="rotate(22 620.869 -7)" fill="#186FBB"/>
<rect opacity="0.3" x="629.143" y="-7" width="4.1" height="68" transform="rotate(22 629.143 -7)" fill="#186FBB"/>
<rect opacity="0.3" x="637.418" y="-7" width="4.1" height="68" transform="rotate(22 637.418 -7)" fill="#186FBB"/>
<rect opacity="0.3" x="645.693" y="-7" width="4.1" height="68" transform="rotate(22 645.693 -7)" fill="#186FBB"/>
<rect opacity="0.3" x="653.967" y="-7" width="4.1" height="68" transform="rotate(22 653.967 -7)" fill="#186FBB"/>
<rect opacity="0.3" x="662.242" y="-7" width="4.1" height="68" transform="rotate(22 662.242 -7)" fill="#186FBB"/>
<rect opacity="0.3" x="670.517" y="-7" width="4.1" height="68" transform="rotate(22 670.517 -7)" fill="#186FBB"/>
<rect opacity="0.3" x="678.792" y="-7" width="4.1" height="68" transform="rotate(22 678.792 -7)" fill="#186FBB"/>
<rect opacity="0.3" x="687.066" y="-7" width="4.1" height="68" transform="rotate(22 687.066 -7)" fill="#186FBB"/>
<rect opacity="0.3" x="695.341" y="-7" width="4.1" height="68" transform="rotate(22 695.341 -7)" fill="#186FBB"/>
<rect opacity="0.3" x="703.615" y="-7" width="4.1" height="68" transform="rotate(22 703.615 -7)" fill="#186FBB"/>
<rect opacity="0.3" x="711.89" y="-7" width="4.1" height="68" transform="rotate(22 711.89 -7)" fill="#186FBB"/>
<rect opacity="0.3" x="720.165" y="-7" width="4.1" height="68" transform="rotate(22 720.165 -7)" fill="#186FBB"/>
<rect opacity="0.3" x="728.44" y="-7" width="4.1" height="68" transform="rotate(22 728.44 -7)" fill="#186FBB"/>
<rect opacity="0.3" x="736.714" y="-7" width="4.1" height="68" transform="rotate(22 736.714 -7)" fill="#186FBB"/>
<rect opacity="0.3" x="744.989" y="-7" width="4.1" height="68" transform="rotate(22 744.989 -7)" fill="#186FBB"/>
</g>
<path opacity="0.5" d="M819.924 9.39996C819.735 9.14818 819.438 9 819.124 9H809.742C808.918 9 808.448 9.94081 808.943 10.6L819.669 24.9C819.935 25.2555 819.935 25.7445 819.669 26.1L808.943 40.4C808.448 41.0592 808.918 42 809.742 42H819.124C819.438 42 819.735 41.8518 819.924 41.6L831.55 26.1C831.817 25.7445 831.817 25.2555 831.55 24.9L819.924 9.39996Z" fill="#186FBB"/>
<path d="M800.121 9.39996C799.933 9.14818 799.636 9 799.321 9H789.94C789.116 9 788.646 9.94081 789.14 10.6L799.866 24.9C800.133 25.2555 800.133 25.7445 799.866 26.1L789.14 40.4C788.646 41.0592 789.116 42 789.94 42H799.321C799.636 42 799.933 41.8518 800.121 41.6L811.748 26.1C812.014 25.7445 812.014 25.2555 811.748 24.9L800.121 9.39996Z" fill="#186FBB"/>
<path fill-rule="evenodd" clip-rule="evenodd" d="M760 1C760 0.447715 760.448 0 761 0H765.941H771.398C771.703 0 771.992 0.139631 772.182 0.379094L791.192 24.3791C791.48 24.7429 791.48 25.2571 791.192 25.6209L772.182 49.6209C771.992 49.8604 771.703 50 771.398 50H765.941H761C760.448 50 760 49.5523 760 49V46.5C760 45.9477 760.448 45.5 761 45.5H769.021C769.327 45.5 769.616 45.3604 769.805 45.1209L785.251 25.6209C785.539 25.2571 785.539 24.7429 785.251 24.3791L769.805 4.8791C769.616 4.63963 769.327 4.5 769.021 4.5H761C760.448 4.5 760 4.05228 760 3.5V1Z" fill="url(#paint3_linear_8_5201)"/>
<g filter="url(#filter2_d_8_5201)">
<g filter="url(#filter3_f_8_5201)">
<path d="M1204 25H832" stroke="url(#paint4_linear_8_5201)" stroke-width="2"/>
<path d="M1204.54 21.2235C1204.24 20.9255 1203.76 20.9255 1203.46 21.2235L1200.22 24.4605C1199.93 24.7585 1199.93 25.2415 1200.22 25.5395L1203.46 28.7765C1203.76 29.0745 1204.24 29.0745 1204.54 28.7765L1207.78 25.5395C1208.07 25.2415 1208.07 24.7585 1207.78 24.4605L1204.54 21.2235Z" fill="#9FABCC"/>
</g>
<path d="M1204 25H832" stroke="url(#paint5_linear_8_5201)" stroke-width="2"/>
<path d="M1204.54 21.2235C1204.24 20.9255 1203.76 20.9255 1203.46 21.2235L1200.22 24.4605C1199.93 24.7585 1199.93 25.2415 1200.22 25.5395L1203.46 28.7765C1203.76 29.0745 1204.24 29.0745 1204.54 28.7765L1207.78 25.5395C1208.07 25.2415 1208.07 24.7585 1207.78 24.4605L1204.54 21.2235Z" fill="#9FABCC"/>
</g>
<path d="M536.802 19.228H532.926L533.458 15.618H537.296L537.79 12.16L536.878 11.058H543.528L542.882 15.618H546.682L546.15 19.228H542.35L539.652 38.342H534.104L536.802 19.228ZM547.48 38.342L549.874 35.948L551.66 23.256H545.922L546.454 19.494H564.352L563.82 23.256H557.284L555.498 36.062C555.397 36.7207 555.093 37.2653 554.586 37.696C554.105 38.1267 553.547 38.342 552.914 38.342H547.48ZM564.124 11.78L563.592 15.58H547.974L548.506 11.78H564.124ZM562.186 25.422L561.92 37.62H557.892L557.93 25.422H562.186ZM550.444 25.422L547.328 37.62H543.3L546.416 25.422H550.444ZM530.57 36.974L533.648 19.912H536.194L533.116 36.974H530.57ZM541.248 34.808L542.692 19.912H545.2L543.794 34.808H541.248ZM576.433 30.476H576.509L577.383 31.654L577.953 27.588H570.999L571.531 23.978H585.971L585.439 27.588H583.349L583.159 29.07H586.009L585.515 32.642H582.665L582.437 34.086H601.133L600.639 37.696H576.813L574.989 35.302L574.305 37.658H568.871L571.303 29.564L570.581 28.348H577.041L576.433 30.476ZM603.565 11.704L603.071 15.314H598.891L598.169 17.138H602.387L600.829 28.31H597.637L596.991 27.588L598.055 20.026H591.557L590.493 27.588L589.695 28.31H586.465L588.023 17.138H591.671L592.393 15.314H587.909L588.403 11.704H603.565ZM574.495 13.148L573.241 11.704H587.681L586.123 22.914H573.127L574.495 13.148ZM597.181 21.09L596.269 27.588L600.525 33.364H594.749L593.115 30.704L590.417 33.364H585.363L591.215 27.588L592.127 21.09H597.181ZM581.107 19.988L581.297 18.544H579.093L578.903 19.988H581.107ZM579.435 16.036H581.639L581.867 14.592H579.663L579.435 16.036ZM614.316 19.228H610.44L610.972 15.618H614.81L615.304 12.16L614.392 11.058H621.042L620.396 15.618H624.196L623.664 19.228H619.864L617.166 38.342H611.618L614.316 19.228ZM624.994 38.342L627.388 35.948L629.174 23.256H623.436L623.968 19.494H641.866L641.334 23.256H634.798L633.012 36.062C632.911 36.7207 632.607 37.2653 632.1 37.696C631.619 38.1267 631.061 38.342 630.428 38.342H624.994ZM641.638 11.78L641.106 15.58H625.488L626.02 11.78H641.638ZM639.7 25.422L639.434 37.62H635.406L635.444 25.422H639.7ZM627.958 25.422L624.842 37.62H620.814L623.93 25.422H627.958ZM608.084 36.974L611.162 19.912H613.708L610.63 36.974H608.084ZM618.762 34.808L620.206 19.912H622.714L621.308 34.808H618.762ZM653.947 30.476H654.023L654.897 31.654L655.467 27.588H648.513L649.045 23.978H663.485L662.953 27.588H660.863L660.673 29.07H663.523L663.029 32.642H660.179L659.951 34.086H678.647L678.153 37.696H654.327L652.503 35.302L651.819 37.658H646.385L648.817 29.564L648.095 28.348H654.555L653.947 30.476ZM681.079 11.704L680.585 15.314H676.405L675.683 17.138H679.901L678.343 28.31H675.151L674.505 27.588L675.569 20.026H669.071L668.007 27.588L667.209 28.31H663.979L665.537 17.138H669.185L669.907 15.314H665.423L665.917 11.704H681.079ZM652.009 13.148L650.755 11.704H665.195L663.637 22.914H650.641L652.009 13.148ZM674.695 21.09L673.783 27.588L678.039 33.364H672.263L670.629 30.704L667.931 33.364H662.877L668.729 27.588L669.641 21.09H674.695ZM658.621 19.988L658.811 18.544H656.607L656.417 19.988H658.621ZM656.949 16.036H659.153L659.381 14.592H657.177L656.949 16.036Z" fill="url(#paint6_linear_8_5201)"/>
<defs>
<filter id="filter0_d_8_5201" x="0" y="21" width="384" height="16" filterUnits="userSpaceOnUse" color-interpolation-filters="sRGB">
<feFlood flood-opacity="0" result="BackgroundImageFix"/>
<feColorMatrix in="SourceAlpha" type="matrix" values="0 0 0 0 0 0 0 0 0 0 0 0 0 0 0 0 0 0 127 0" result="hardAlpha"/>
<feOffset dy="4"/>
<feGaussianBlur stdDeviation="2"/>
<feComposite in2="hardAlpha" operator="out"/>
<feColorMatrix type="matrix" values="0 0 0 0 0 0 0 0 0 0 0 0 0 0 0 0 0 0 0.25 0"/>
<feBlend mode="normal" in2="BackgroundImageFix" result="effect1_dropShadow_8_5201"/>
<feBlend mode="normal" in="SourceGraphic" in2="effect1_dropShadow_8_5201" result="shape"/>
</filter>
<filter id="filter1_f_8_5201" x="0" y="17" width="384" height="16" filterUnits="userSpaceOnUse" color-interpolation-filters="sRGB">
<feFlood flood-opacity="0" result="BackgroundImageFix"/>
<feBlend mode="normal" in="SourceGraphic" in2="BackgroundImageFix" result="shape"/>
<feGaussianBlur stdDeviation="2" result="effect1_foregroundBlur_8_5201"/>
</filter>
<filter id="filter2_d_8_5201" x="828" y="21" width="384" height="16" filterUnits="userSpaceOnUse" color-interpolation-filters="sRGB">
<feFlood flood-opacity="0" result="BackgroundImageFix"/>
<feColorMatrix in="SourceAlpha" type="matrix" values="0 0 0 0 0 0 0 0 0 0 0 0 0 0 0 0 0 0 127 0" result="hardAlpha"/>
<feOffset dy="4"/>
<feGaussianBlur stdDeviation="2"/>
<feComposite in2="hardAlpha" operator="out"/>
<feColorMatrix type="matrix" values="0 0 0 0 0 0 0 0 0 0 0 0 0 0 0 0 0 0 0.25 0"/>
<feBlend mode="normal" in2="BackgroundImageFix" result="effect1_dropShadow_8_5201"/>
<feBlend mode="normal" in="SourceGraphic" in2="effect1_dropShadow_8_5201" result="shape"/>
</filter>
<filter id="filter3_f_8_5201" x="828" y="17" width="384" height="16" filterUnits="userSpaceOnUse" color-interpolation-filters="sRGB">
<feFlood flood-opacity="0" result="BackgroundImageFix"/>
<feBlend mode="normal" in="SourceGraphic" in2="BackgroundImageFix" result="shape"/>
<feGaussianBlur stdDeviation="2" result="effect1_foregroundBlur_8_5201"/>
</filter>
<linearGradient id="paint0_linear_8_5201" x1="10.5978" y1="25" x2="380" y2="25.001" gradientUnits="userSpaceOnUse">
<stop stop-color="#9FABCC"/>
<stop offset="1" stop-color="#9FABCC" stop-opacity="0"/>
</linearGradient>
<linearGradient id="paint1_linear_8_5201" x1="10.5978" y1="25" x2="380" y2="25.001" gradientUnits="userSpaceOnUse">
<stop stop-color="#9FABCC"/>
<stop offset="1" stop-color="#9FABCC" stop-opacity="0"/>
</linearGradient>
<linearGradient id="paint2_linear_8_5201" x1="436.296" y1="0" x2="436.296" y2="50" gradientUnits="userSpaceOnUse">
<stop stop-color="#0B5FA9"/>
<stop offset="0.468882" stop-color="#A1D3FA"/>
<stop offset="1" stop-color="#0B5FA9"/>
</linearGradient>
<linearGradient id="paint3_linear_8_5201" x1="775.704" y1="0" x2="775.704" y2="50" gradientUnits="userSpaceOnUse">
<stop stop-color="#0B5FA9"/>
<stop offset="0.468882" stop-color="#A1D3FA"/>
<stop offset="1" stop-color="#0B5FA9"/>
</linearGradient>
<linearGradient id="paint4_linear_8_5201" x1="1201.4" y1="25" x2="832" y2="25.001" gradientUnits="userSpaceOnUse">
<stop stop-color="#9FABCC"/>
<stop offset="1" stop-color="#9FABCC" stop-opacity="0"/>
</linearGradient>
<linearGradient id="paint5_linear_8_5201" x1="1201.4" y1="25" x2="832" y2="25.001" gradientUnits="userSpaceOnUse">
<stop stop-color="#9FABCC"/>
<stop offset="1" stop-color="#9FABCC" stop-opacity="0"/>
</linearGradient>
<linearGradient id="paint6_linear_8_5201" x1="606" y1="2" x2="606" y2="38.0333" gradientUnits="userSpaceOnUse">
<stop offset="0.228217" stop-color="white"/>
<stop offset="1" stop-color="#0B5FAA"/>
</linearGradient>
</defs>
</svg>
